<svg xmlns="http://www.w3.org/2000/svg" version="1.1" viewBox="-5.0 -10.0 110.0 135.0">
 <path d="m80.09 19.398-7.7109-16.52c-0.25-0.57031-0.80078-0.94922-1.4297-0.91016h-0.03125-0.011719-0.011719c-0.039062 0-0.089843 0.011719-0.12891 0.019531-0.050781 0-0.10156 0-0.14062 0.019531h-0.019531c-0.050781 0.011719-0.10156 0.03125-0.14062 0.050782-0.039063 0.011718-0.078125 0.019531-0.12109 0.039062h-0.019531l-16.52 7.7617c-0.55859 0.26953-0.91016 0.85156-0.89063 1.4688 0.03125 0.62109 0.42969 1.1719 1.0195 1.3789l10.672 3.8594-3.1992 8.8203h-14.961c-0.89062-6.5898-6.4688-11.559-13.262-11.559-7.3984 0-13.422 6.0195-13.422 13.422 0 7.3984 6.0195 13.398 13.422 13.398h0.19141c0.039062 1.1914 0.019531 2.4297-0.10156 3.6719v0.058594c-0.19922 2.0117-0.64844 4.0586-1.4492 6.0703-1.8984 4.7617-2.7188 12.379 1.2305 18.211 1.8906 2.7891 5.5586 6.0312 12.488 7.0117 0.48047 2.5312 0.67188 6.6602-1.7305 10.762-0.46875 0.80859-1.3516 1.5703-2.4609 2.1406-0.53125 0.26953-1.9297 0.46094-3.1602 0.62109-3.1992 0.42969-6.8203 0.92188-6.8203 3.8086 0 4.6406 14.23 5 18.59 5 4.8398 0 10.398-0.19922 14.93-1.6992 0.73828-0.23047 3.1914-1.1211 3.6484-2.9414 0.16016-0.64062 0.039063-1.3008-0.32812-1.8398-0.85938-1.2695-2.8086-1.6406-4.9805-1.9414l-0.73828-0.10156c-1.4102-0.19141-2.8711-0.39844-3.8789-0.89844-1.1406-0.57812-2.0195-1.3281-2.4805-2.1406-2.3984-4.1016-2.2188-8.2305-1.7383-10.762 6.9609-0.98047 10.629-4.2188 12.531-7.0195 3.9492-5.8281 3.1289-13.449 1.2305-18.211-4.2812-10.73 1.4688-22.711 1.5312-22.828 0.23047-0.48047 0.19922-1.0391-0.078125-1.5-0.28125-0.44922-0.78125-0.73047-1.3086-0.73047h-3.6094l2.8203-7.7695 10.66 3.8594c0.17188 0.058593 0.35156 0.089843 0.53125 0.089843 0.42188 0 0.83984-0.17969 1.1406-0.5 0.42188-0.46094 0.51953-1.1289 0.26172-1.6914zm-57.238 7.8711c0-5.6992 4.6406-10.34 10.34-10.34 5.0781 0 9.2695 3.6211 10.129 8.4805h-11.641c-0.53125 0-1.0312 0.28125-1.3086 0.73047-0.28125 0.44922-0.30859 1.0195-0.078125 1.5 0.03125 0.070313 2.0586 4.2891 2.8203 9.9492-5.6719-0.039063-10.27-4.6484-10.27-10.309zm30.609 60.73c0.76172 1.3281 2.0586 2.4883 3.7617 3.3516 1.4688 0.73828 3.1914 0.96875 4.8516 1.1992l0.82031 0.10938c0.82812 0.12109 1.4805 0.23047 1.9609 0.35156-0.25 0.12891-0.55859 0.26172-0.89844 0.37109-4.1719 1.3789-9.6602 1.5508-13.988 1.5508-8.1797 0-13.352-1.1406-15.07-1.9609 0.91016-0.32812 2.6602-0.57031 3.7109-0.71094 1.6914-0.23047 3.1406-0.42188 4.1484-0.92969 1.6602-0.85156 2.9414-2 3.7188-3.3281 2.6406-4.5 2.6914-9 2.25-12.051 0.42188 0.019531 0.82813 0.03125 1.2695 0.03125s0.82812-0.019531 1.2305-0.03125c-0.44141 3.0391-0.39062 7.5391 2.2383 12.031zm10.91-21.051c-2.6797 3.9609-7.5195 5.9688-14.379 5.9688-6.8594 0-11.699-2.0117-14.379-5.9688-3.0586-4.5195-2.6719-10.961-0.92188-15.328 0.82031-2.0508 1.3008-4.1211 1.5703-6.1484 0.92188-0.37891 3.75-0.94141 9.9688 2.4609 4.0391 2.2109 8.0703 2.8711 11.449 2.8711 2.9883 0 5.4688-0.51953 7-0.94141 0.17969 0.58984 0.39062 1.1719 0.62109 1.7617 1.75 4.3789 2.1406 10.82-0.92188 15.328zm-0.44141-20.098c-2.7109 0.75-9.5508 2.0312-16.238-1.6289-5.5-3-9.0508-3.3516-11.211-2.9883 0.019531-1.0391-0.011719-2.0508-0.089844-3.0391 0.019531-0.14062 0.019531-0.28906 0-0.44141-0.011719-0.070312-0.03125-0.12891-0.050781-0.19141-0.39844-4.25-1.5312-7.8711-2.3516-10.059h31.98c-1.3281 3.5195-3.4297 10.738-2.0391 18.352zm3.1914-32.633h-0.011719-0.011719l-2.9688-1.0703 5.5117-5.9219 0.44141 8.0703-2.9492-1.0703zm-2.7227-5.9102-3.4297 3.6914-2.4883-0.89844 5.9297-2.7891zm8.832 8.1211-0.28125-5.0312 2.7695 5.9297z"/>
<text x="0.0" y="117.5" font-size="5.0" font-weight="bold" font-family="Arbeit Regular, Helvetica, Arial-Unicode, Arial, Sans-serif" fill="#000000">Created by Zeer Graphic</text><text x="0.0" y="122.5" font-size="5.0" font-weight="bold" font-family="Arbeit Regular, Helvetica, Arial-Unicode, Arial, Sans-serif" fill="#000000">from Noun Project</text></svg>