<svg xmlns="http://www.w3.org/2000/svg" version="1.1" viewBox="-5.0 -10.0 110.0 135.0">
 <path d="m39.828 24.852c0-0.55469-0.44922-1-1-1h-3.3945c-0.55078 0-1 0.44531-1 1 0 0.55469 0.44922 1 1 1h3.3945c0.55078 0 1-0.44922 1-1z"/>
 <path d="m44.402 20.316c0.55078 0 1-0.44531 1-1v-3.3672c0-0.55469-0.44922-1-1-1-0.55078 0-1 0.44531-1 1v3.3672c0 0.55078 0.44922 1 1 1z"/>
 <path d="m39.754 28.055-2.3984 2.3828c-0.39062 0.39062-0.39453 1.0234-0.003907 1.4141 0.19531 0.19531 0.45313 0.29688 0.71094 0.29688 0.25391 0 0.50781-0.097657 0.70312-0.28906l2.3984-2.3828c0.39063-0.39062 0.39453-1.0234 0.003907-1.4141-0.38672-0.39453-1.0195-0.39844-1.4141-0.007812z"/>
 <path d="m48.348 21.938c0.25391 0 0.50781-0.097656 0.70312-0.28906l2.3984-2.3828c0.39062-0.39062 0.39453-1.0234 0.003906-1.4141-0.39062-0.39062-1.0195-0.39453-1.4141-0.007812l-2.3984 2.3828c-0.39062 0.39063-0.39453 1.0234-0.003906 1.4141 0.19531 0.19922 0.45312 0.29688 0.71094 0.29688z"/>
 <path d="m38.766 17.848c-0.39062-0.39062-1.0234-0.38672-1.4141 0.007813-0.39062 0.39062-0.38672 1.0234 0.003907 1.4141l2.3984 2.3828c0.19531 0.19531 0.44922 0.28906 0.70312 0.28906 0.25781 0 0.51562-0.097656 0.71094-0.29688 0.39062-0.39062 0.38672-1.0234-0.003907-1.4141z"/>
 <path d="m70.555 24.852c0-0.55469-0.44922-1-1-1h-10.238c-0.47266-7.7148-6.9688-13.852-14.914-13.852-8.25 0-14.957 6.6641-14.957 14.852 0 8.7031 6.7383 13.812 13.137 14.203h0.82031v40.594c0 5.6953 4.6328 10.328 10.328 10.328h6.4961c5.6953 0 10.328-4.6328 10.328-10.328zm-2 11.527c-1.543-0.79297-3.2617-1.5195-6.1484-1.5195-3.2617 0-5.0352 0.93359-6.75 1.8359-1.5664 0.82813-3.0508 1.6055-5.8203 1.6055-2.0469 0-3.3555-0.42188-4.4336-0.91406v-11.535h23.152zm-25.91 0.67578c-7.2734-0.44531-11.199-6.6211-11.199-12.203 0-7.0859 5.8125-12.852 12.957-12.852 6.8398 0 12.441 5.2422 12.91 11.852h-12.91c-0.55078 0-1 0.44531-1 1v12.203zm17.582 50.918h-6.4961c-4.5938 0-8.3281-3.7344-8.3281-8.3281v-40.098c1.1172 0.41797 2.5156 0.75 4.4336 0.75 3.2656 0 5.0391-0.93359 6.75-1.8359 1.5664-0.82422 3.0469-1.6055 5.8164-1.6055 2.7773 0 4.2578 0.78125 5.8242 1.6094l0.32422 0.16797v41.012c0.003907 4.5938-3.7305 8.3281-8.3242 8.3281z"/>
<text x="0.0" y="117.5" font-size="5.0" font-weight="bold" font-family="Arbeit Regular, Helvetica, Arial-Unicode, Arial, Sans-serif" fill="#000000">Created by Made by Made</text><text x="0.0" y="122.5" font-size="5.0" font-weight="bold" font-family="Arbeit Regular, Helvetica, Arial-Unicode, Arial, Sans-serif" fill="#000000">from Noun Project</text></svg>